<svg xmlns="http://www.w3.org/2000/svg" version="1.1" xmlns:xlink="http://www.w3.org/1999/xlink" width="2" height="0" focusable="false" aria-hidden="true" style="opacity: 0; position: absolute; left: -100%; top: -100%; overflow: hidden;"><path d="M267.11495090641324 153.70169423675543C267.11495090641324 153.70169423675543 268.7089872715837 153.70169423675543 268.7089872715837 153.70169423675543C268.7089872715837 153.70169423675543 268.7089872715837 153.70169423675543 268.7089872715837 153.70169423675543C268.7089872715837 153.70169423675543 268.7089872715837 153.70169423675543 268.7089872715837 153.70169423675543C268.7089872715837 153.70169423675543 270.30302363675406 153.70169423675543 270.30302363675406 153.70169423675543C270.30302363675406 153.70169423675543 270.30302363675406 156.60494846123038 270.30302363675406 156.60494846123038C270.30302363675406 156.60494846123038 268.7089872715837 156.60494846123038 268.7089872715837 156.60494846123038C268.7089872715837 156.60494846123038 268.7089872715837 159.1951066418842 268.7089872715837 159.1951066418842C268.7089872715837 159.1951066418842 268.7089872715837 156.60494846123038 268.7089872715837 156.60494846123038C268.7089872715837 156.60494846123038 267.11495090641324 156.60494846123038 267.11495090641324 156.60494846123038C267.11495090641324 156.60494846123038 267.11495090641324 153.20169423675543 267.11495090641324 153.20169423675543 "></path></svg>