<?xml version="1.0" encoding="UTF-8"?> <svg xmlns="http://www.w3.org/2000/svg" xmlns:xlink="http://www.w3.org/1999/xlink" width="252" height="83" viewBox="0 0 252 83"><defs><linearGradient id="a" x1="0.5" y1="-0.047" x2="0.5" y2="1.125" gradientUnits="objectBoundingBox"><stop offset="0" stop-color="#929497"></stop><stop offset="0.537" stop-color="#fff"></stop><stop offset="1" stop-color="#6d6e71"></stop></linearGradient><linearGradient id="b" x1="0.5" y1="-3.43" x2="0.5" y2="3.787" xlink:href="#a"></linearGradient><linearGradient id="c" x1="0.5" y1="-7.738" x2="0.5" y2="6.497" xlink:href="#a"></linearGradient><linearGradient id="d" x1="0.5" y1="-0.987" x2="0.5" y2="1.084" xlink:href="#a"></linearGradient><linearGradient id="e" x1="0.5" y1="-1.254" x2="0.5" y2="1.096" xlink:href="#a"></linearGradient><linearGradient id="f" x1="0.5" y1="-4.432" x2="0.5" y2="1.231" xlink:href="#a"></linearGradient><linearGradient id="g" x1="0.5" y1="-9.518" x2="0.5" y2="1.446" xlink:href="#a"></linearGradient><linearGradient id="h" x1="0.5" y1="-9.961" x2="0.5" y2="1.465" xlink:href="#a"></linearGradient><linearGradient id="i" x1="0.5" y1="-0.428" x2="0.5" y2="1.061" xlink:href="#a"></linearGradient><linearGradient id="j" x1="0.5" y1="-0.213" x2="0.5" y2="2.337" xlink:href="#a"></linearGradient><linearGradient id="l" x1="0.5" y1="-0.193" x2="0.5" y2="2.286" xlink:href="#a"></linearGradient><linearGradient id="n" x1="0.5" y1="-1.082" x2="0.5" y2="3.293" xlink:href="#a"></linearGradient><linearGradient id="o" x1="0.5" y1="-0.574" x2="0.5" y2="1.531" xlink:href="#a"></linearGradient><linearGradient id="p" x1="0.5" y1="-1.139" x2="0.5" y2="3.038" xlink:href="#a"></linearGradient><linearGradient id="r" x1="0.5" y1="-0.003" x2="0.5" y2="0.992" xlink:href="#a"></linearGradient><linearGradient id="s" x1="0.5" y1="0.155" x2="0.5" y2="1.931" xlink:href="#a"></linearGradient><linearGradient id="t" x1="0.5" y1="-1.348" x2="0.5" y2="1.103" xlink:href="#a"></linearGradient><linearGradient id="x" x1="0.5" y1="-0.167" x2="0.5" y2="1.084" xlink:href="#a"></linearGradient><linearGradient id="ae" x1="0.5" y1="-0.148" x2="0.5" y2="1.068" xlink:href="#a"></linearGradient><linearGradient id="ag" x1="0.5" y1="-2.481" x2="0.5" y2="0.738" xlink:href="#a"></linearGradient></defs><g transform="translate(611.095 1561.764)"><g transform="translate(-610.35 -1555.599)"><path d="M228.4,418.581H130V475.6l14.916-8.316V456.923H163.5l5.052-2.816a7.932,7.932,0,0,1,7.889-7.2c.021,0,.041,0,.061,0v-3.144H144.916V431.741h40.694V457l5.524,4.941a7.932,7.932,0,0,1,5.549-.154l3.843-4.022v-26.02h12.961V444.2l3.073-3.218c0-.1-.006-.209-.006-.313a7.916,7.916,0,0,1,11.849-6.875v-2.049h35.974v-13.16Z" transform="translate(-130 -418.581)" fill="url(#a)"></path><g transform="translate(83.486 29.085)"><path d="M420.328,503.739l-7.076-3.319v9.257h7.076Z" transform="translate(-396.07 -500.419)" fill="url(#b)"></path><path d="M440.629,513.261v4.693h10.006Z" transform="translate(-413.717 -508.697)" fill="url(#c)"></path><path d="M385.046,532.908h7.371V500.661a7.911,7.911,0,0,1-6.587.223l-.784.821Z" transform="translate(-377.888 -500.575)" fill="url(#d)"></path><path d="M369.411,511.413l-4.5,4.715v23.711h4.5Z" transform="translate(-364.906 -507.506)" fill="url(#e)"></path></g><g transform="translate(55.609 49.622)"><path d="M292.9,566.924a7.934,7.934,0,0,1-5.855-7.646c0-.179.006-.359.019-.539l-.6-.536V570H292.9Z" transform="translate(-286.47 -558.204)" fill="url(#f)"></path><path d="M312.042,577.521v2.825h5.827v-6.093A7.916,7.916,0,0,1,312.042,577.521Z" transform="translate(-302.954 -568.549)" fill="url(#g)"></path></g><g transform="translate(0 16.55)"><path d="M137.5,574.945l-7.5,4.181v1.665h7.5Z" transform="translate(-130 -535.923)" fill="url(#h)"></path><path d="M254.81,473.78l-6.392-3c0-.033,0-.065,0-.1a5.535,5.535,0,1,0-10.949,1.15l-21.853,22.875a5.521,5.521,0,0,0-6.4.156l-9.148-8.181a5.533,5.533,0,1,0-10.75-1.84,5.614,5.614,0,0,0,.045.677l-30.8,17.172v7.326h4.763v-5.882l27.6-15.39a5.522,5.522,0,0,0,6.914.749l9.342,8.355a5.532,5.532,0,1,0,10.609-.237l21.615-22.624a5.53,5.53,0,0,0,7.78-.827l27.246,12.78H278.4V473.78Z" transform="translate(-148.414 -465.148)" fill="url(#i)"></path></g></g><path d="M529.454,434.892h2.377V428.67h7.994V426.51h-7.994v-4.58h9.074v-2.16H529.454Z" transform="translate(-998.329 -1974.946)" fill="url(#j)"></path><path d="M528,562.623h2.334v-6.109h7.848v-2.122h-7.848v-4.5h8.909v-2.121H528Z" transform="translate(-997.39 -2057.738)" fill="url(#j)"></path><path d="M574.116,419.161A7.778,7.778,0,1,0,582,426.939,7.783,7.783,0,0,0,574.116,419.161Zm0,13.4a5.618,5.618,0,1,1,5.509-5.617A5.4,5.4,0,0,1,574.116,432.556Z" transform="translate(-1022.09 -1974.554)" fill="url(#l)"></path><path d="M631.667,424.695c0-2.916-2.571-4.925-5.574-4.925h-6.374v15.123H622.1v-5.358h3.823l4.019,5.358h2.7l-4.3-5.747A4.721,4.721,0,0,0,631.667,424.695Zm-9.571,2.679v-5.445h4c1.9,0,3.2,1.145,3.2,2.765s-1.3,2.679-3.2,2.679Z" transform="translate(-1056.628 -1974.946)" fill="url(#j)"></path><path d="M665.739,439.681h7.886v-2.16H663.362v8.815h11.343v-2.161h-8.966Z" transform="translate(-1084.81 -1986.452)" fill="url(#n)"></path><g transform="translate(-476.765 -1536.321)"><path d="M676.629,490.523h-3.89v10.8h3.89a5.405,5.405,0,1,0,0-10.8Z" transform="translate(-614.265 -484.388)" fill="url(#o)"></path><path d="M769.9,493.289c0-1.621-1.3-2.766-3.2-2.766h-4v5.445h4C768.6,495.968,769.9,494.909,769.9,493.289Z" transform="translate(-672.255 -484.388)" fill="url(#p)"></path><path d="M587.662,493.289c0-1.621-1.3-2.766-3.2-2.766h-4v5.445h4C586.367,495.968,587.662,494.909,587.662,493.289Z" transform="translate(-554.787 -484.388)" fill="url(#p)"></path><path d="M625.313,483.742v-10.48H512.651v10.48h-4.442v1.464h4.442v10.912H625.313V485.205h.2v-1.464ZM528.707,479.4h-5.4V492.36h-2.376V479.4h-5.4v-2.16h13.179Zm13.026,12.963L537.714,487H533.89v5.358h-2.377V477.236h6.374c3,0,5.574,2.009,5.574,4.926a4.721,4.721,0,0,1-3.327,4.451l4.3,5.747Zm18.052,0-2.619-5.833h.006l-3-6.676-3,6.676h.005l-2.62,5.833h-2.377l6.913-15.123h2.161l6.913,15.123Zm10.788,0h-6.266V477.236h6.266a7.573,7.573,0,1,1,0,15.123Zm22.575,0H581.8v-8.814h10.263v2.16h-7.885V490.2h8.966Zm.029-12.963H581.835v-2.16h11.343ZM606.5,492.36,602.48,487h-3.824v5.358h-2.377V477.236h6.374c3,0,5.574,2.009,5.574,4.926a4.721,4.721,0,0,1-3.327,4.451l4.3,5.747Zm10.433.216a8.793,8.793,0,0,1-6.33-2.722l1.448-1.837a6.549,6.549,0,0,0,4.753,2.226c1.9,0,3.047-.843,3.047-2.139,0-1.491-1.232-2.052-3.587-2.55-2.83-.605-4.839-1.62-4.839-4.17,0-2.528,2.139-4.364,5.142-4.364a6.84,6.84,0,0,1,5.228,1.9l-1.383,1.62a4.9,4.9,0,0,0-3.63-1.36c-2.117,0-3.09.821-3.09,2.052,0,1.4,1.534,1.815,3.631,2.291,3.154.713,4.838,1.987,4.838,4.623C622.16,491.15,619.5,492.576,616.932,492.576Z" transform="translate(-508.209 -473.262)" fill="url(#r)"></path></g><path d="M693.479,407.364l1.05-6.128-7.182,3.841,2.132.8-5.485,7.459-4.213-5.509H663.362v2.16h15.366l3.9,5.12-5.985,7.843h2.7l4.645-6.071,4.645,6.071h2.7l-5.985-7.843,6.227-8.447Z" transform="translate(-1084.986 -1963)" fill="url(#s)"></path><path d="M578.689,556.787a6.288,6.288,0,0,1-12.569,0v-8.8h2.2v8.8a4.085,4.085,0,0,0,8.169,0v-8.8h2.2Z" transform="translate(-1022.012 -2057.876)" fill="url(#t)"></path><path d="M624.281,562.651h-2.094L613.807,551.8v10.851h-2.3V547.988H613.6l8.379,10.851V547.988h2.3Z" transform="translate(-1051.321 -2057.875)" fill="url(#t)"></path><path d="M664.136,547.988h-6.075v14.664h6.075a7.343,7.343,0,1,0,0-14.664Zm0,12.569h-3.77V550.082h3.77a5.241,5.241,0,1,1,0,10.475Z" transform="translate(-1081.393 -2057.875)" fill="url(#t)"></path><path d="M708.7,562.481a8.528,8.528,0,0,1-6.138-2.639l1.4-1.781a6.348,6.348,0,0,0,4.608,2.157c1.844,0,2.953-.817,2.953-2.073,0-1.446-1.193-1.991-3.477-2.473-2.744-.585-4.692-1.571-4.692-4.042,0-2.451,2.073-4.232,4.986-4.232a6.628,6.628,0,0,1,5.069,1.844l-1.341,1.571a4.75,4.75,0,0,0-3.52-1.32c-2.052,0-3,.8-3,1.99,0,1.362,1.487,1.759,3.519,2.22,3.059.692,4.693,1.927,4.693,4.483C713.766,561.1,711.188,562.481,708.7,562.481Z" transform="translate(-1110.251 -2057.495)" fill="url(#t)"></path><g transform="translate(-611.095 -1487.97)"><path d="M131.851,617.886h-1.206V611.31H127.9v-1.1h6.685v1.1h-2.74Z" transform="translate(-127.905 -610.105)" fill="url(#x)"></path><path d="M164.272,615.168v2.718h-1.206v-7.672H166.3a2.637,2.637,0,0,1,2.828,2.5,2.4,2.4,0,0,1-1.688,2.258l2.181,2.915h-1.37l-2.039-2.718Zm0-1.1H166.3c.965,0,1.622-.537,1.622-1.359a1.455,1.455,0,0,0-1.622-1.4h-2.028Z" transform="translate(-150.57 -610.105)" fill="url(#x)"></path><path d="M197.769,615.968l-.866,1.918H195.7l3.507-7.672h1.1l3.507,7.672H202.6l-.866-1.918Zm.461-1.041h3.046l-1.523-3.387Z" transform="translate(-171.604 -610.105)" fill="url(#x)"></path><path d="M234.56,617.886v-7.672h3.178a3.842,3.842,0,1,1,0,7.672Zm3.178-1.1a2.742,2.742,0,1,0,0-5.48h-1.973v5.48Z" transform="translate(-196.655 -610.105)" fill="url(#x)"></path><path d="M271.881,617.886v-7.672h5.754v1.1h-4.548v2.1h4v1.1h-4v2.28h4.548v1.1Z" transform="translate(-220.884 -610.105)" fill="url(#x)"></path><path d="M329.565,610.214h.932l2.06,6.467,1.83-6.467h1.206l-2.247,7.672h-1.534l-1.787-5.743-1.775,5.743h-1.535l-2.246-7.672h1.206l1.83,6.467Z" transform="translate(-254.85 -610.105)" fill="url(#x)"></path><path d="M373.018,610.214v7.672h-1.206v-7.672Z" transform="translate(-285.414 -610.105)" fill="url(#x)"></path><path d="M394.577,609.906a3.468,3.468,0,0,1,2.652.965l-.7.822a2.487,2.487,0,0,0-1.841-.691c-1.074,0-1.567.417-1.567,1.041,0,.713.778.921,1.841,1.162,1.6.362,2.455,1.008,2.455,2.346a2.384,2.384,0,0,1-2.652,2.247,4.462,4.462,0,0,1-3.211-1.381l.735-.932a3.322,3.322,0,0,0,2.411,1.129c.965,0,1.545-.428,1.545-1.085,0-.756-.625-1.041-1.819-1.293-1.436-.307-2.455-.822-2.455-2.115A2.348,2.348,0,0,1,394.577,609.906Z" transform="translate(-298.167 -609.906)" fill="url(#ae)"></path><path d="M424.863,617.886v-7.672h5.754v1.1h-4.548v2.1h4v1.1h-4v2.28h4.548v1.1Z" transform="translate(-319.679 -610.105)" fill="url(#x)"></path><path d="M457.475,627.422a.812.812,0,0,1,.877.833,1.192,1.192,0,0,1-.219.537l-1.041,1.611h-.767l.811-1.447a.789.789,0,0,1-.482-.7A.83.83,0,0,1,457.475,627.422Z" transform="translate(-339.99 -621.197)" fill="url(#ag)"></path><path d="M502.719,610.214h.932l2.061,6.467,1.83-6.467h1.206l-2.247,7.672h-1.534l-1.787-5.743-1.775,5.743h-1.535l-2.246-7.672h1.206l1.83,6.467Z" transform="translate(-366.677 -610.105)" fill="url(#x)"></path><path d="M544.812,617.886v-7.672h5.754v1.1h-4.548v2.1h4v1.1h-4v2.28h4.548v1.1Z" transform="translate(-397.141 -610.105)" fill="url(#x)"></path><path d="M578.036,615.968l-.866,1.918h-1.206l3.507-7.672h1.1l3.507,7.672H582.87L582,615.968Zm.46-1.041h3.047l-1.523-3.387Z" transform="translate(-417.265 -610.105)" fill="url(#x)"></path><path d="M616.033,610.214v6.576h4.6v1.1h-5.809v-7.672Z" transform="translate(-442.357 -610.105)" fill="url(#x)"></path><path d="M646.686,617.886H645.48V611.31h-2.74v-1.1h6.686v1.1h-2.74Z" transform="translate(-460.385 -610.105)" fill="url(#x)"></path><path d="M679.107,610.214v3.2h4v-3.2h1.206v7.672h-1.206V614.51h-4v3.376H677.9v-7.672Z" transform="translate(-483.091 -610.105)" fill="url(#x)"></path><path d="M736.63,615.168v2.718h-1.206v-7.672h3.233a2.637,2.637,0,0,1,2.828,2.5,2.4,2.4,0,0,1-1.688,2.258l2.181,2.915h-1.37l-2.039-2.718Zm0-1.1h2.028c.965,0,1.622-.537,1.622-1.359a1.455,1.455,0,0,0-1.622-1.4H736.63Z" transform="translate(-520.342 -610.105)" fill="url(#x)"></path><path d="M771.266,610.214v7.672h-1.206v-7.672Z" transform="translate(-542.669 -610.105)" fill="url(#x)"></path><path d="M792.825,609.906a3.468,3.468,0,0,1,2.652.965l-.7.822a2.487,2.487,0,0,0-1.841-.691c-1.074,0-1.567.417-1.567,1.041,0,.713.778.921,1.841,1.162,1.6.362,2.455,1.008,2.455,2.346a2.384,2.384,0,0,1-2.652,2.247,4.462,4.462,0,0,1-3.211-1.381l.735-.932a3.322,3.322,0,0,0,2.411,1.129c.964,0,1.545-.428,1.545-1.085,0-.756-.625-1.041-1.819-1.293-1.436-.307-2.455-.822-2.455-2.115A2.348,2.348,0,0,1,792.825,609.906Z" transform="translate(-555.393 -609.906)" fill="url(#ae)"></path><path d="M823.111,617.886v-7.672h5.754v1.1h-4.548v2.1h4v1.1h-4v2.28h4.548v1.1Z" transform="translate(-576.865 -610.105)" fill="url(#x)"></path></g></g></svg> 